<mxfile host="app.diagrams.net" modified="2023-05-12T08:08:51.070Z" agent="Mozilla/5.0 (Windows NT 10.0; Win64; x64) AppleWebKit/537.36 (KHTML, like Gecko) Chrome/113.0.0.0 Safari/537.36 Edg/113.0.1774.35" etag="Ia8mScbCNDXVlTNn1Uzr" version="21.2.9" type="github">
  <diagram name="Page-1" id="u6cjoJNSnQX6bYshC5z-">
    <mxGraphModel dx="991" dy="564" grid="1" gridSize="10" guides="1" tooltips="1" connect="1" arrows="1" fold="1" page="1" pageScale="1" pageWidth="850" pageHeight="1100" math="0" shadow="0">
      <root>
        <mxCell id="0" />
        <mxCell id="1" parent="0" />
        <mxCell id="ih698sic8wc5zYv8ZNns-1" value="Customer&lt;br&gt;" style="shape=umlActor;verticalLabelPosition=bottom;verticalAlign=top;html=1;outlineConnect=0;" vertex="1" parent="1">
          <mxGeometry x="20" y="260" width="30" height="60" as="geometry" />
        </mxCell>
        <mxCell id="ih698sic8wc5zYv8ZNns-2" value="Seller" style="shape=umlActor;verticalLabelPosition=bottom;verticalAlign=top;html=1;outlineConnect=0;" vertex="1" parent="1">
          <mxGeometry x="830" y="140" width="30" height="60" as="geometry" />
        </mxCell>
        <mxCell id="ih698sic8wc5zYv8ZNns-5" value="Adminstrator" style="shape=umlActor;verticalLabelPosition=bottom;verticalAlign=top;html=1;outlineConnect=0;" vertex="1" parent="1">
          <mxGeometry x="820" y="450" width="30" height="60" as="geometry" />
        </mxCell>
        <mxCell id="ih698sic8wc5zYv8ZNns-6" value="Tìm kiếm" style="ellipse;whiteSpace=wrap;html=1;" vertex="1" parent="1">
          <mxGeometry x="145" y="150" width="100" height="40" as="geometry" />
        </mxCell>
        <mxCell id="ih698sic8wc5zYv8ZNns-7" value="Xem xe theo hãng" style="ellipse;whiteSpace=wrap;html=1;" vertex="1" parent="1">
          <mxGeometry x="145" y="220" width="140" height="50" as="geometry" />
        </mxCell>
        <mxCell id="ih698sic8wc5zYv8ZNns-8" value="Xem xe theo kiểu dáng" style="ellipse;whiteSpace=wrap;html=1;" vertex="1" parent="1">
          <mxGeometry x="140" y="300" width="150" height="50" as="geometry" />
        </mxCell>
        <mxCell id="ih698sic8wc5zYv8ZNns-9" value="Đặt hàng" style="ellipse;whiteSpace=wrap;html=1;" vertex="1" parent="1">
          <mxGeometry x="160" y="380" width="100" height="40" as="geometry" />
        </mxCell>
        <mxCell id="ih698sic8wc5zYv8ZNns-11" value="Chỉnh sửa giỏ hàng" style="ellipse;whiteSpace=wrap;html=1;" vertex="1" parent="1">
          <mxGeometry x="140" y="440" width="140" height="50" as="geometry" />
        </mxCell>
        <mxCell id="ih698sic8wc5zYv8ZNns-12" value="Liên hệ" style="ellipse;whiteSpace=wrap;html=1;" vertex="1" parent="1">
          <mxGeometry x="125" y="510" width="105" height="50" as="geometry" />
        </mxCell>
        <mxCell id="ih698sic8wc5zYv8ZNns-14" value="Đăng nhập" style="ellipse;whiteSpace=wrap;html=1;" vertex="1" parent="1">
          <mxGeometry x="480" y="240" width="120" height="80" as="geometry" />
        </mxCell>
        <mxCell id="ih698sic8wc5zYv8ZNns-15" value="Đăng thông tin xe" style="ellipse;whiteSpace=wrap;html=1;" vertex="1" parent="1">
          <mxGeometry x="630" y="110" width="120" height="50" as="geometry" />
        </mxCell>
        <mxCell id="ih698sic8wc5zYv8ZNns-16" value="Xem đơn hàng" style="ellipse;whiteSpace=wrap;html=1;" vertex="1" parent="1">
          <mxGeometry x="630" y="200" width="120" height="50" as="geometry" />
        </mxCell>
        <mxCell id="ih698sic8wc5zYv8ZNns-17" value="" style="endArrow=classic;html=1;rounded=0;exitX=1;exitY=0.5;exitDx=0;exitDy=0;entryX=0;entryY=0;entryDx=0;entryDy=0;dashed=1;" edge="1" parent="1" source="ih698sic8wc5zYv8ZNns-6" target="ih698sic8wc5zYv8ZNns-14">
          <mxGeometry relative="1" as="geometry">
            <mxPoint x="390" y="360" as="sourcePoint" />
            <mxPoint x="490" y="360" as="targetPoint" />
          </mxGeometry>
        </mxCell>
        <mxCell id="ih698sic8wc5zYv8ZNns-18" value="&amp;lt;&amp;lt;include&amp;gt;&amp;gt;" style="edgeLabel;resizable=0;html=1;align=center;verticalAlign=middle;" connectable="0" vertex="1" parent="ih698sic8wc5zYv8ZNns-17">
          <mxGeometry relative="1" as="geometry" />
        </mxCell>
        <mxCell id="ih698sic8wc5zYv8ZNns-19" value="" style="endArrow=classic;html=1;rounded=0;exitX=1;exitY=0.5;exitDx=0;exitDy=0;entryX=0.047;entryY=0.288;entryDx=0;entryDy=0;dashed=1;entryPerimeter=0;" edge="1" parent="1" target="ih698sic8wc5zYv8ZNns-14">
          <mxGeometry relative="1" as="geometry">
            <mxPoint x="284" y="245" as="sourcePoint" />
            <mxPoint x="444.4000000000001" y="308.0000000000001" as="targetPoint" />
          </mxGeometry>
        </mxCell>
        <mxCell id="ih698sic8wc5zYv8ZNns-20" value="&amp;lt;&amp;lt;include&amp;gt;&amp;gt;" style="edgeLabel;resizable=0;html=1;align=center;verticalAlign=middle;" connectable="0" vertex="1" parent="ih698sic8wc5zYv8ZNns-19">
          <mxGeometry relative="1" as="geometry" />
        </mxCell>
        <mxCell id="ih698sic8wc5zYv8ZNns-21" value="" style="endArrow=classic;html=1;rounded=0;entryX=0;entryY=0.5;entryDx=0;entryDy=0;dashed=1;" edge="1" parent="1" source="ih698sic8wc5zYv8ZNns-8" target="ih698sic8wc5zYv8ZNns-14">
          <mxGeometry relative="1" as="geometry">
            <mxPoint x="294" y="255" as="sourcePoint" />
            <mxPoint x="454.4000000000001" y="318.0000000000001" as="targetPoint" />
          </mxGeometry>
        </mxCell>
        <mxCell id="ih698sic8wc5zYv8ZNns-22" value="&amp;lt;&amp;lt;include&amp;gt;&amp;gt;" style="edgeLabel;resizable=0;html=1;align=center;verticalAlign=middle;" connectable="0" vertex="1" parent="ih698sic8wc5zYv8ZNns-21">
          <mxGeometry relative="1" as="geometry" />
        </mxCell>
        <mxCell id="ih698sic8wc5zYv8ZNns-23" value="" style="endArrow=classic;html=1;rounded=0;entryX=0.057;entryY=0.771;entryDx=0;entryDy=0;dashed=1;entryPerimeter=0;exitX=1.009;exitY=0.346;exitDx=0;exitDy=0;exitPerimeter=0;" edge="1" parent="1" source="ih698sic8wc5zYv8ZNns-9" target="ih698sic8wc5zYv8ZNns-14">
          <mxGeometry relative="1" as="geometry">
            <mxPoint x="300" y="333" as="sourcePoint" />
            <mxPoint x="450" y="330" as="targetPoint" />
          </mxGeometry>
        </mxCell>
        <mxCell id="ih698sic8wc5zYv8ZNns-24" value="&amp;lt;&amp;lt;include&amp;gt;&amp;gt;" style="edgeLabel;resizable=0;html=1;align=center;verticalAlign=middle;" connectable="0" vertex="1" parent="ih698sic8wc5zYv8ZNns-23">
          <mxGeometry relative="1" as="geometry" />
        </mxCell>
        <mxCell id="ih698sic8wc5zYv8ZNns-25" value="" style="endArrow=classic;html=1;rounded=0;entryX=0.174;entryY=0.963;entryDx=0;entryDy=0;dashed=1;exitX=0.924;exitY=0.271;exitDx=0;exitDy=0;exitPerimeter=0;entryPerimeter=0;" edge="1" parent="1" source="ih698sic8wc5zYv8ZNns-11" target="ih698sic8wc5zYv8ZNns-14">
          <mxGeometry relative="1" as="geometry">
            <mxPoint x="310" y="343" as="sourcePoint" />
            <mxPoint x="460" y="340" as="targetPoint" />
          </mxGeometry>
        </mxCell>
        <mxCell id="ih698sic8wc5zYv8ZNns-26" value="&amp;lt;&amp;lt;include&amp;gt;&amp;gt;" style="edgeLabel;resizable=0;html=1;align=center;verticalAlign=middle;" connectable="0" vertex="1" parent="ih698sic8wc5zYv8ZNns-25">
          <mxGeometry relative="1" as="geometry" />
        </mxCell>
        <mxCell id="ih698sic8wc5zYv8ZNns-29" value="" style="endArrow=none;html=1;rounded=0;entryX=0;entryY=0.5;entryDx=0;entryDy=0;" edge="1" parent="1" target="ih698sic8wc5zYv8ZNns-6">
          <mxGeometry width="50" height="50" relative="1" as="geometry">
            <mxPoint x="70" y="260" as="sourcePoint" />
            <mxPoint x="480" y="290" as="targetPoint" />
          </mxGeometry>
        </mxCell>
        <mxCell id="ih698sic8wc5zYv8ZNns-30" value="" style="endArrow=none;html=1;rounded=0;entryX=0;entryY=0.5;entryDx=0;entryDy=0;" edge="1" parent="1" target="ih698sic8wc5zYv8ZNns-7">
          <mxGeometry width="50" height="50" relative="1" as="geometry">
            <mxPoint x="80" y="280" as="sourcePoint" />
            <mxPoint x="400" y="290" as="targetPoint" />
          </mxGeometry>
        </mxCell>
        <mxCell id="ih698sic8wc5zYv8ZNns-32" value="" style="endArrow=none;html=1;rounded=0;exitX=0;exitY=0.5;exitDx=0;exitDy=0;" edge="1" parent="1" source="ih698sic8wc5zYv8ZNns-8">
          <mxGeometry width="50" height="50" relative="1" as="geometry">
            <mxPoint x="350" y="340" as="sourcePoint" />
            <mxPoint x="80" y="300" as="targetPoint" />
          </mxGeometry>
        </mxCell>
        <mxCell id="ih698sic8wc5zYv8ZNns-33" value="" style="endArrow=none;html=1;rounded=0;exitX=0;exitY=0.5;exitDx=0;exitDy=0;" edge="1" parent="1" source="ih698sic8wc5zYv8ZNns-9">
          <mxGeometry width="50" height="50" relative="1" as="geometry">
            <mxPoint x="350" y="340" as="sourcePoint" />
            <mxPoint x="80" y="330" as="targetPoint" />
          </mxGeometry>
        </mxCell>
        <mxCell id="ih698sic8wc5zYv8ZNns-34" value="" style="endArrow=none;html=1;rounded=0;entryX=0;entryY=0.5;entryDx=0;entryDy=0;" edge="1" parent="1" target="ih698sic8wc5zYv8ZNns-11">
          <mxGeometry width="50" height="50" relative="1" as="geometry">
            <mxPoint x="70" y="350" as="sourcePoint" />
            <mxPoint x="400" y="290" as="targetPoint" />
          </mxGeometry>
        </mxCell>
        <mxCell id="ih698sic8wc5zYv8ZNns-35" value="" style="endArrow=none;html=1;rounded=0;entryX=0;entryY=0.5;entryDx=0;entryDy=0;" edge="1" parent="1" target="ih698sic8wc5zYv8ZNns-12">
          <mxGeometry width="50" height="50" relative="1" as="geometry">
            <mxPoint x="50" y="360" as="sourcePoint" />
            <mxPoint x="400" y="290" as="targetPoint" />
          </mxGeometry>
        </mxCell>
        <mxCell id="ih698sic8wc5zYv8ZNns-36" value="" style="endArrow=none;html=1;rounded=0;entryX=0.989;entryY=0.623;entryDx=0;entryDy=0;entryPerimeter=0;" edge="1" parent="1" target="ih698sic8wc5zYv8ZNns-15">
          <mxGeometry width="50" height="50" relative="1" as="geometry">
            <mxPoint x="810" y="170" as="sourcePoint" />
            <mxPoint x="640" y="150" as="targetPoint" />
          </mxGeometry>
        </mxCell>
        <mxCell id="ih698sic8wc5zYv8ZNns-37" value="" style="endArrow=none;html=1;rounded=0;entryX=1;entryY=0.5;entryDx=0;entryDy=0;" edge="1" parent="1" target="ih698sic8wc5zYv8ZNns-16">
          <mxGeometry width="50" height="50" relative="1" as="geometry">
            <mxPoint x="810" y="200" as="sourcePoint" />
            <mxPoint x="640" y="150" as="targetPoint" />
          </mxGeometry>
        </mxCell>
        <mxCell id="ih698sic8wc5zYv8ZNns-39" value="Chỉnh sửa thông tin xe" style="ellipse;whiteSpace=wrap;html=1;" vertex="1" parent="1">
          <mxGeometry x="630" y="270" width="140" height="50" as="geometry" />
        </mxCell>
        <mxCell id="ih698sic8wc5zYv8ZNns-40" value="" style="endArrow=none;html=1;rounded=0;entryX=0.989;entryY=0.623;entryDx=0;entryDy=0;entryPerimeter=0;" edge="1" parent="1" target="ih698sic8wc5zYv8ZNns-39">
          <mxGeometry width="50" height="50" relative="1" as="geometry">
            <mxPoint x="810" y="230" as="sourcePoint" />
            <mxPoint x="640" y="310" as="targetPoint" />
          </mxGeometry>
        </mxCell>
        <mxCell id="ih698sic8wc5zYv8ZNns-41" value="Quản lý tài khoản" style="ellipse;whiteSpace=wrap;html=1;" vertex="1" parent="1">
          <mxGeometry x="620" y="440" width="120" height="50" as="geometry" />
        </mxCell>
        <mxCell id="ih698sic8wc5zYv8ZNns-42" value="" style="endArrow=none;html=1;rounded=0;entryX=0.989;entryY=0.623;entryDx=0;entryDy=0;entryPerimeter=0;" edge="1" parent="1" target="ih698sic8wc5zYv8ZNns-41">
          <mxGeometry width="50" height="50" relative="1" as="geometry">
            <mxPoint x="800" y="471" as="sourcePoint" />
            <mxPoint x="630" y="480" as="targetPoint" />
          </mxGeometry>
        </mxCell>
      </root>
    </mxGraphModel>
  </diagram>
</mxfile>
